<?xml version="1.0" encoding="utf-8"?>
<!-- Generator: Adobe Illustrator 22.0.1, SVG Export Plug-In . SVG Version: 6.00 Build 0)  -->
<svg version="1.1" id="Livello_1" xmlns="http://www.w3.org/2000/svg" xmlns:xlink="http://www.w3.org/1999/xlink" x="0px" y="0px"
	 viewBox="0 0 16 16" style="enable-background:new 0 0 16 16;" xml:space="preserve">
<style type="text/css">
	.st0{fill:#415364;}
	.st1{fill:#FF9E18;}
	.st2{fill:#FFFFFF;}
</style>
<g>
	<g>
		<rect class="st0" width="16" height="16"/>
	</g>
	<g>
		<path class="st1" d="M11.8,5.9l0,4.3c0,0,0,0.1-0.1,0.1l-3.7,2.1c0,0-0.1,0-0.1,0l-3.7-2.1c0,0-0.1-0.1-0.1-0.1l0-3.7
			c0,0,0-0.1-0.1-0.1l-1-0.6C3.1,5.7,3,5.7,3,5.8v4.7c0,0.2,0.1,0.4,0.3,0.5l4.4,2.5c0.2,0.1,0.4,0.1,0.6,0l4.4-2.5
			c0.2-0.1,0.3-0.3,0.3-0.5V5.5c0-0.2-0.1-0.4-0.3-0.5L8.3,2.4c-0.2-0.1-0.4-0.1-0.6,0l-2,1.2c-0.1,0-0.1,0.1,0,0.2l1,0.6
			c0,0,0.1,0,0.1,0L8,3.7c0,0,0.1,0,0.1,0L11.8,5.9C11.8,5.8,11.8,5.8,11.8,5.9z"/>
		<circle class="st2" cx="10.1" cy="8" r="0.7"/>
		<circle class="st2" cx="7.9" cy="8" r="0.7"/>
	</g>
</g>
</svg>
