<?xml version="1.0" encoding="utf-8"?>
<!-- Generator: Adobe Illustrator 22.0.1, SVG Export Plug-In . SVG Version: 6.00 Build 0)  -->
<svg version="1.1" id="Livello_1" xmlns="http://www.w3.org/2000/svg" xmlns:xlink="http://www.w3.org/1999/xlink" x="0px" y="0px"
	 viewBox="0 0 64 64" style="enable-background:new 0 0 64 64;" xml:space="preserve">
<style type="text/css">
	.st0{fill:#415364;}
	.st1{fill:#FF9E18;}
	.st2{fill:#FFFFFF;}
</style>
<g>
	<g>
		<rect class="st0" width="64" height="64"/>
	</g>
	<g>
		<path class="st1" d="M47.1,23.5l0,17.1c0,0.1-0.1,0.3-0.2,0.4l-14.7,8.5c-0.1,0.1-0.3,0.1-0.4,0l-14.7-8.5
			c-0.1-0.1-0.2-0.2-0.2-0.4l0-15c0-0.1-0.1-0.3-0.2-0.4l-4-2.3c-0.3-0.2-0.6,0-0.6,0.4v19c0,0.9,0.5,1.7,1.2,2.1l17.6,10.1
			c0.8,0.4,1.7,0.4,2.5,0l17.5-10.1c0.8-0.4,1.2-1.3,1.2-2.1V21.8c0-0.9-0.5-1.7-1.2-2.1L33.3,9.6c-0.8-0.4-1.7-0.4-2.5,0l-8.1,4.7
			c-0.3,0.2-0.3,0.6,0,0.7l4.1,2.3c0.1,0.1,0.3,0.1,0.4,0l4.7-2.7c0.1-0.1,0.3-0.1,0.4,0l14.7,8.5C47,23.2,47.1,23.3,47.1,23.5z"/>
		<circle class="st2" cx="40.3" cy="32.1" r="2.8"/>
		<circle class="st2" cx="31.5" cy="32.1" r="2.8"/>
	</g>
</g>
</svg>
