<?xml version="1.0" encoding="utf-8"?>
<!-- Generator: Adobe Illustrator 22.1.0, SVG Export Plug-In . SVG Version: 6.00 Build 0)  -->
<svg version="1.1" id="Livello_1" xmlns="http://www.w3.org/2000/svg" xmlns:xlink="http://www.w3.org/1999/xlink" x="0px" y="0px"
	 viewBox="0 0 64 64" style="enable-background:new 0 0 64 64;" xml:space="preserve">
<style type="text/css">
	.st0{fill:#415364;}
	.st1{fill:#FF9E18;}
	.st2{fill:#FFFFFF;}
</style>
<g>
	<path class="st0" d="M52,64H12C5.4,64,0,58.6,0,52V12C0,5.4,5.4,0,12,0h40c6.6,0,12,5.4,12,12v40C64,58.6,58.6,64,52,64z"/>
	<g>
		<g>
			<g>
				<g>
					<path class="st1" d="M48.2,22.8l0,18.3c0,0.2-0.1,0.3-0.2,0.4l-15.7,9.1c-0.1,0.1-0.3,0.1-0.4,0L16,41.5
						c-0.1-0.1-0.2-0.2-0.2-0.4l0-16.1c0-0.2-0.1-0.3-0.2-0.4l-4.3-2.5c-0.3-0.2-0.7,0-0.7,0.4v20.4c0,0.9,0.5,1.8,1.3,2.3L30.7,56
						c0.8,0.5,1.8,0.5,2.6,0l18.7-10.8c0.8-0.5,1.3-1.3,1.3-2.3V21.1c0-0.9-0.5-1.8-1.3-2.3L33.4,8c-0.8-0.5-1.8-0.5-2.6,0L22,13
						c-0.3,0.2-0.3,0.6,0,0.8l4.3,2.5c0.1,0.1,0.3,0.1,0.4,0l5-2.9c0.1-0.1,0.3-0.1,0.4,0L48,22.5C48.1,22.5,48.2,22.7,48.2,22.8z"
						/>
					<circle class="st2" cx="40.9" cy="32.1" r="3"/>
					<circle class="st2" cx="31.4" cy="32.1" r="3"/>
				</g>
			</g>
		</g>
	</g>
</g>
</svg>
