<?xml version="1.0" encoding="utf-8"?>
<!-- Generator: Adobe Illustrator 22.0.1, SVG Export Plug-In . SVG Version: 6.00 Build 0)  -->
<svg version="1.1" id="Livello_1" xmlns="http://www.w3.org/2000/svg" xmlns:xlink="http://www.w3.org/1999/xlink" x="0px" y="0px"
	 viewBox="0 0 64 64" style="enable-background:new 0 0 64 64;" xml:space="preserve">
<style type="text/css">
	.st0{fill:#415364;}
	.st1{fill:#FFFFFF;}
	.st2{fill:#FF9E18;}
</style>
<g>
	<path class="st0" d="M60,64H4c-2.2,0-4-1.8-4-4V4c0-2.2,1.8-4,4-4h56c2.2,0,4,1.8,4,4v56C64,62.2,62.2,64,60,64z"/>
	<g>
		<g>
			<path class="st1" d="M48.1,22.8l0,18.3c0,0.2-0.1,0.3-0.2,0.4l-15.7,9.1c-0.1,0.1-0.3,0.1-0.4,0l-15.8-9.2
				c-0.1-0.1-0.2-0.2-0.2-0.4l0-16.1c0-0.2-0.1-0.3-0.2-0.4L11.1,22c-0.3-0.2-0.7,0-0.7,0.4v20.4c0,0.9,0.5,1.8,1.3,2.3l18.8,10.9
				c0.8,0.5,1.8,0.5,2.6,0L52,45.1c0.8-0.5,1.3-1.3,1.3-2.3V21c0-0.9-0.5-1.8-1.3-2.3L33.2,7.9c-0.8-0.5-1.8-0.5-2.6,0l-8.7,5
				c-0.3,0.2-0.3,0.6,0,0.8l4.3,2.5c0.1,0.1,0.3,0.1,0.4,0l5-2.9c0.1-0.1,0.3-0.1,0.4,0l15.7,9.1C48,22.5,48.1,22.6,48.1,22.8z"/>
			<circle class="st2" cx="40.8" cy="32" r="3"/>
			<circle class="st2" cx="31.3" cy="32" r="3"/>
		</g>
	</g>
</g>
</svg>
