<?xml version="1.0" encoding="utf-8"?>
<!-- Generator: Adobe Illustrator 22.1.0, SVG Export Plug-In . SVG Version: 6.00 Build 0)  -->
<svg version="1.1" id="Livello_1" xmlns="http://www.w3.org/2000/svg" xmlns:xlink="http://www.w3.org/1999/xlink" x="0px" y="0px"
	 viewBox="0 0 64 64" style="enable-background:new 0 0 64 64;" xml:space="preserve">
<style type="text/css">
	.st0{fill:#415364;}
	.st1{fill:#FFFFFF;}
	.st2{fill:#FF9E18;}
</style>
<g>
	<path class="st0" d="M52,64H12C5.4,64,0,58.6,0,52V12C0,5.4,5.4,0,12,0h40c6.6,0,12,5.4,12,12v40C64,58.6,58.6,64,52,64z"/>
	<g>
		<g>
			<path class="st1" d="M16.1,26.1L16.1,26.1c5.3,0,9.7-4.4,9.7-9.7v0c0-5.3-4.3-9.7-9.7-9.7h0c-5.3,0-9.7,4.4-9.7,9.7v0
				C6.4,21.8,10.8,26.1,16.1,26.1z"/>
			<g>
				<path class="st2" d="M14.8,17.9h2.5c0.4,0,0.8-0.3,0.8-0.8V10c0-0.4-0.3-0.8-0.8-0.8h-2.5c-0.4,0-0.8,0.3-0.8,0.8v7.1
					C14.1,17.6,14.4,17.9,14.8,17.9z"/>
				<path class="st2" d="M14.8,23.7h2.6c0.4,0,0.7-0.3,0.7-0.7v-2.4c0-0.4-0.3-0.7-0.7-0.7h-2.6c-0.4,0-0.7,0.3-0.7,0.7v2.4
					C14.1,23.3,14.4,23.7,14.8,23.7z"/>
			</g>
		</g>
		<g>
			<circle class="st1" cx="40.9" cy="32.1" r="3"/>
			<circle class="st1" cx="31.4" cy="32.1" r="3"/>
			<path class="st2" d="M52.1,18.8L33.4,8c-0.8-0.5-1.8-0.5-2.6,0l-3.9,2.3c0.9,1.5,1.5,3.2,1.6,5.1l3.4-2c0.1-0.1,0.3-0.1,0.4,0
				L48,22.5c0.1,0.1,0.2,0.2,0.2,0.4l0,18.3c0,0.2-0.1,0.3-0.2,0.4l-15.7,9.1c-0.1,0.1-0.3,0.1-0.4,0L16,41.5
				c-0.1-0.1-0.2-0.2-0.2-0.4l0-12.4c-1.9-0.1-3.6-0.6-5.2-1.4v15.6c0,0.9,0.5,1.8,1.3,2.3L30.7,56c0.8,0.5,1.8,0.5,2.6,0l18.7-10.8
				c0.8-0.5,1.3-1.3,1.3-2.3V21.1C53.4,20.2,52.9,19.3,52.1,18.8z"/>
		</g>
	</g>
</g>
</svg>
