<?xml version="1.0" encoding="utf-8"?>
<!-- Generator: Adobe Illustrator 22.0.1, SVG Export Plug-In . SVG Version: 6.00 Build 0)  -->
<svg version="1.1" id="Livello_1" xmlns="http://www.w3.org/2000/svg" xmlns:xlink="http://www.w3.org/1999/xlink" x="0px" y="0px"
	 viewBox="0 0 64 64" style="enable-background:new 0 0 64 64;" xml:space="preserve">
<style type="text/css">
	.st0{fill:#415364;}
	.st1{fill:#FFFFFF;}
	.st2{fill:#FF9E18;}
</style>
<g>
	<path class="st0" d="M60,64H4c-2.2,0-4-1.8-4-4V4c0-2.2,1.8-4,4-4h56c2.2,0,4,1.8,4,4v56C64,62.2,62.2,64,60,64z"/>
	<circle class="st1" cx="40.8" cy="32" r="3"/>
	<circle class="st1" cx="31.3" cy="32" r="3"/>
	<g>
		<path class="st1" d="M16.1,26L16.1,26c5.3,0,9.7-4.4,9.7-9.7v0c0-5.3-4.3-9.7-9.7-9.7h0c-5.3,0-9.7,4.4-9.7,9.7v0
			C6.4,21.7,10.8,26,16.1,26z"/>
		<g>
			<path class="st2" d="M14.8,17.8h2.5c0.4,0,0.8-0.3,0.8-0.8V9.9c0-0.4-0.3-0.8-0.8-0.8h-2.5c-0.4,0-0.8,0.3-0.8,0.8V17
				C14.1,17.5,14.4,17.8,14.8,17.8z"/>
			<path class="st2" d="M14.8,23.5h2.6c0.4,0,0.7-0.3,0.7-0.7v-2.4c0-0.4-0.3-0.7-0.7-0.7h-2.6c-0.4,0-0.7,0.3-0.7,0.7v2.4
				C14.1,23.2,14.4,23.5,14.8,23.5z"/>
		</g>
	</g>
	<path class="st2" d="M52,18.7L33.2,7.9c-0.8-0.5-1.8-0.5-2.6,0l-3.9,2.3c0.9,1.5,1.5,3.2,1.6,5.1l3.4-2c0.1-0.1,0.3-0.1,0.4,0
		l15.7,9.1c0.1,0.1,0.2,0.2,0.2,0.4l0,18.3c0,0.2-0.1,0.3-0.2,0.4l-15.7,9.1c-0.1,0.1-0.3,0.1-0.4,0l-15.8-9.2
		c-0.1-0.1-0.2-0.2-0.2-0.4l0-12.4c-1.9-0.1-3.6-0.6-5.2-1.4v15.6c0,0.9,0.5,1.8,1.3,2.3l18.8,10.9c0.8,0.5,1.8,0.5,2.6,0L52,45.1
		c0.8-0.5,1.3-1.3,1.3-2.3V21C53.3,20.1,52.8,19.2,52,18.7z"/>
</g>
</svg>
