<?xml version="1.0" encoding="utf-8"?>
<!-- Generator: Adobe Illustrator 22.1.0, SVG Export Plug-In . SVG Version: 6.00 Build 0)  -->
<svg version="1.1" id="Livello_1" xmlns="http://www.w3.org/2000/svg" xmlns:xlink="http://www.w3.org/1999/xlink" x="0px" y="0px"
	 viewBox="0 0 16 16" style="enable-background:new 0 0 16 16;" xml:space="preserve">
<style type="text/css">
	.st0{fill:#415364;}
	.st1{fill:#FFFFFF;}
	.st2{fill:#FF9E18;}
</style>
<g>
	<path class="st0" d="M13,16H3c-1.6,0-3-1.4-3-3V3c0-1.7,1.4-3,3-3h10c1.6,0,3,1.4,3,3v10C16,14.6,14.6,16,13,16z"/>
	<g>
		<g>
			<path class="st1" d="M4,6.5L4,6.5c1.3,0,2.4-1.1,2.4-2.4v0c0-1.3-1.1-2.4-2.4-2.4h0c-1.3,0-2.4,1.1-2.4,2.4v0
				C1.6,5.4,2.7,6.5,4,6.5z"/>
			<g>
				<path class="st2" d="M3.7,4.5h0.6c0.1,0,0.2-0.1,0.2-0.2V2.5c0-0.1-0.1-0.2-0.2-0.2H3.7c-0.1,0-0.2,0.1-0.2,0.2v1.8
					C3.5,4.4,3.6,4.5,3.7,4.5z"/>
				<path class="st2" d="M3.7,5.9h0.7c0.1,0,0.2-0.1,0.2-0.2V5.1C4.5,5,4.5,5,4.4,5H3.7C3.6,5,3.5,5,3.5,5.1v0.6
					C3.5,5.8,3.6,5.9,3.7,5.9z"/>
			</g>
		</g>
		<g>
			<circle class="st1" cx="10.2" cy="8" r="0.7"/>
			<circle class="st1" cx="7.9" cy="8" r="0.7"/>
			<path class="st2" d="M13,4.7L8.3,2C8.1,1.9,7.9,1.9,7.7,2l-1,0.6c0.2,0.4,0.4,0.8,0.4,1.3L8,3.3c0,0,0.1,0,0.1,0L12,5.6
				c0,0,0.1,0.1,0.1,0.1l0,4.6c0,0,0,0.1-0.1,0.1l-3.9,2.3c0,0-0.1,0-0.1,0l-4-2.3c0,0-0.1-0.1-0.1-0.1l0-3.1C3.5,7.1,3,7,2.6,6.8
				v3.9c0,0.2,0.1,0.5,0.3,0.6L7.7,14c0.2,0.1,0.5,0.1,0.7,0l4.7-2.7c0.2-0.1,0.3-0.3,0.3-0.6V5.3C13.4,5,13.2,4.8,13,4.7z"/>
		</g>
	</g>
</g>
</svg>
