<svg xmlns="http://www.w3.org/2000/svg" viewBox="0 0 330 330"><linearGradient id="a" x1="47.236" x2="47.236" y1="317.053" y2="49.29" gradientTransform="matrix(1 0 0 -1 0 330)" gradientUnits="userSpaceOnUse"><stop offset="0" stop-color="#ffda33"/><stop offset="1" stop-color="#ff6200"/></linearGradient><path fill="url(#a)" d="M76.909,4.521c-11.444,0.81-20.162,3.507-28.119,8.102	C29.467,23.778,17.565,44.395,17.565,66.705V261.89v0.032l59.344,47.309V4.521z"/><linearGradient id="b" x1="35.76" x2="263.496" y1="35.313" y2="163.369" gradientTransform="matrix(1 0 0 -1 0 330)" gradientUnits="userSpaceOnUse"><stop offset="0" stop-color="#ffda33"/><stop offset="1" stop-color="#ff6200"/></linearGradient><path fill="url(#b)" d="M281.212,219.057l16.323-74.975L74.359,272.851c-11.718,6.761-26.152,6.758-37.866-0.008	s-18.931-19.266-18.931-32.794v22.98c0,22.307,11.899,42.921,31.216,54.078c19.317,11.157,43.118,11.163,62.441,0.015	L281.212,219.057z"/><linearGradient id="c" x1="78.881" x2="186.94" y1="187.482" y2="119.987" gradientTransform="matrix(1 0 0 -1 0 330)" gradientUnits="userSpaceOnUse"><stop offset="0" stop-color="#ffda33"/><stop offset="1" stop-color="#ff6200"/></linearGradient><path fill="url(#c)" d="M112.15 122.504L112.146 207.505 185.661 165.005z"/><linearGradient id="d" x1="309.759" x2="108.939" y1="155.493" y2="241.351" gradientTransform="matrix(1 0 0 -1 0 330)" gradientUnits="userSpaceOnUse"><stop offset="0" stop-color="#ffda33"/><stop offset="1" stop-color="#ff6200"/></linearGradient><path fill="url(#d)" d="M112.146,13.283v65.532l149.184,86.128c11.717,6.765,18.935,19.267,18.935,32.797	s-7.218,26.032-18.935,32.797l19.884-11.48c19.322-11.156,31.225-31.772,31.225-54.083s-11.903-42.927-31.225-54.083L112.146,13.283	z"/></svg>
