<svg xmlns="http://www.w3.org/2000/svg" width="460" height="460"><g transform="matrix(11.93814 0 0 12.14185 87.286 1450.814)"><path fill="#03a9f4" d="m 21.61,-117.218 c 2.083,1.206 9.614,14.292 9.61,16.698 -0.003,2.407 -7.57,15.472 -9.655,16.672 -2.086,1.2 -17.184,1.18 -19.266,-0.026 -2.083,-1.206 -9.614,-14.292 -9.61,-16.698 0.003,-2.406 7.57,-15.471 9.655,-16.672 2.086,-1.2 17.184,-1.18 19.266,0.026 z"/><rect width="8.743" height="8.743" x="2.221" y="-104.918" fill="#fff" ry="2.418"/><g fill="#fff" transform="translate(0 .145)"><rect width="8.743" height="8.743" x="9.089" y="-98.734" ry="2.418"/><rect width="8.743" height="8.743" x="9.089" y="-111.39" ry="2.418"/></g></g></svg>
