<svg xmlns="http://www.w3.org/2000/svg" xmlns:xlink="http://www.w3.org/1999/xlink" width="72" height="72"><defs><linearGradient id="a" x1=".305" x2=".681" y1=".952" y2=".036"><stop offset="0%" stop-color="#318CC8"/><stop offset="100%" stop-color="#5EC0FF"/></linearGradient><linearGradient id="b" x1="22.085" x2="48.76" y1="68.161" y2="3.108" gradientTransform="translate(.058 -.058)" gradientUnits="userSpaceOnUse" xlink:href="#a"/></defs><path fill="url(#b)" d="M 36,71.48 C 16.405,71.48 0.52,55.595 0.52,36 0.52,16.405 16.405,0.51999995 36,0.51999995 55.595,0.51999995 71.48,16.405 71.48,36 71.48,55.595 55.595,71.48 36,71.48 Z"/><path fill="#fefefe" d="m 49.041,47.673 c -0.624,0 -1.25,-0.036 -1.876,-0.105 v 4.174 c 0,1.323 1.411,2.029 3.352,2.029 1.94,0 6.35,0.353 8.114,-2.734 0.907,-1.588 1.487,-3.361 1.837,-4.848 -3.085,0.972 -6.954,1.485 -11.427,1.485 m 11.883,-4.506 v -0.026 c 0,-0.354 -0.086,-2.374 -0.198,-4.983 h -0.025 c -2.266,0 -5.617,-1.117 -7.319,-2.44 -0.41,-0.32 -0.87,-0.747 -1.36,-1.236 -2.258,2.94 -4.414,7.086 -4.795,10.37 0.595,0.076 1.2,0.117 1.814,0.117 4.846,0 8.944,-0.636 11.883,-1.802 m -5.882,-9.583 c 1.215,0.945 3.889,1.839 5.568,1.87 -0.189,-4.418 -0.392,-9.399 -0.392,-11.055 0,-3.086 0.09,-5.864 -0.882,-5.864 -2.47,0 -1.852,10.715 -4.939,13.361 -0.193,0.166 -0.391,0.349 -0.592,0.546 0.467,0.47 0.895,0.876 1.237,1.142 m -42.911,1.817 c 1.651,-0.21 3.818,-0.994 4.876,-1.817 0.422,-0.328 0.974,-0.868 1.568,-1.48 a 11.11,11.11 0 0 0 -0.234,-0.208 c -3.087,-2.646 -2.47,-13.362 -4.939,-13.362 -0.97,0 -0.882,2.779 -0.882,5.866 0,1.649 -0.201,6.596 -0.389,11.001 m 13.367,9.347 c -0.432,-3.415 -2.744,-7.73 -5.087,-10.655 -0.636,0.652 -1.228,1.223 -1.744,1.625 -1.541,1.198 -4.437,2.229 -6.653,2.412 -0.112,2.622 -0.2,4.655 -0.2,5.011 0,0.078 0.004,0.175 0.01,0.285 2.876,1 6.71,1.543 11.184,1.543 0.847,0 1.68,-0.08 2.49,-0.22 m -2.49,2.923 c -4.12,0 -7.729,-0.434 -10.684,-1.263 0.355,1.44 0.921,3.117 1.784,4.626 1.764,3.087 6.174,2.734 8.114,2.734 1.94,0 3.351,-0.706 3.351,-2.029 v -4.263 a 17.07,17.07 0 0 1 -2.565,0.195"/><path fill="#fefefe" d="m 63.603,37.412 c -0.522,0 -1.077,0.18 -1.649,0.533 -0.081,0.05 -0.413,0.215 -1.253,0.215 -2.266,0 -5.617,-1.118 -7.319,-2.442 -0.85,-0.66 -1.902,-1.777 -3.016,-2.96 -2.344,-2.486 -4.558,-4.834 -6.474,-4.834 -1.362,0 -2.93,0.635 -4.447,1.249 -1.264,0.51 -2.57,1.04 -3.42,1.04 -0.85,0 -2.157,-0.53 -3.42,-1.04 -1.517,-0.614 -3.086,-1.249 -4.448,-1.249 -1.916,0 -4.13,2.349 -6.474,4.835 -1.114,1.182 -2.167,2.299 -3.016,2.96 -1.702,1.323 -5.053,2.44 -7.319,2.44 -0.84,0 -1.171,-0.164 -1.253,-0.214 -0.572,-0.353 -1.127,-0.533 -1.65,-0.533 -0.738,0 -1.362,0.387 -1.627,1.009 -0.326,0.767 -0.054,1.709 0.727,2.52 2.466,2.56 8.102,4.03 15.463,4.03 4.833,0 9.197,-2.536 11.668,-4.909 0.502,-0.481 1.156,-0.506 1.282,-0.506 h 0.004 l 0.024,0.008 0.088,-0.007 h 0.017 c 0.126,0 0.78,0.024 1.282,0.505 2.472,2.373 6.835,4.908 11.668,4.908 7.361,0 12.997,-1.468 15.463,-4.03 0.781,-0.81 1.053,-1.752 0.727,-2.52 -0.265,-0.621 -0.889,-1.008 -1.628,-1.008"/></svg>
