<svg xmlns="http://www.w3.org/2000/svg" width="206" height="206"><g transform="translate(-623.4 -396.1)"><linearGradient id="a" x1="858.75" x2="709.5" y1="456.625" y2="505.625" gradientTransform="translate(.35 -.8)" gradientUnits="userSpaceOnUse"><stop offset="0" stop-color="#35bed6"/><stop offset="1" stop-color="#25003a"/></linearGradient><path fill="url(#a)" d="m 726.45,396.89999 c -56.6,0 -102.5,45.9 -102.5,102.5 0,11.5 1.9,22.6 5.4,33 31.4,-6 46.7,-9.8 58.3,-50.7 8.8,-31 19.2,-43.7 19.2,-43.7 0,0 -0.6,11.7 4.1,17.8 0.8,-12.7 11.3,-24.9 23.4,-27 -6.9,8 -7.9,15.6 -7,19.2 4.1,-7.1 21.2,-16.9 42.8,-8 -19.8,1.4 -30.3,11 -31.6,18.4 -1.1,6.5 1.8,9.6 1.8,9.6 13.8,-0.9 17.6,11.4 20.4,11.4 2.8,0 7.9,3.6 7.8,8.2 -0.2,8.1 -6.8,5.8 -6.8,10.4 0,4.1 2.6,6.9 3.4,6.2 1.7,-1.8 5.2,-2.6 7.5,-1.2 5.6,3.4 -0.8,8.2 5.2,12.8 6,4.6 12,11.5 12,17.7 0,4.9 -2.9,3.9 -3,4.5 -0.1,0.6 -0.7,10.5 -12,14.8 -7.2,2.7 -10,0.5 -11,1 -4.5,2.1 -12.7,4.6 -25.7,2.6 -1.3,-0.2 7.7,24.2 0.1,44.9 51.1,-5.8 90.7,-49.2 90.7,-101.8 0,-56.7 -45.9,-102.6 -102.5,-102.6 z"/><linearGradient id="b" x1="791.204" x2="694.87" y1="438.311" y2="526.644" gradientTransform="translate(.35 -.8)" gradientUnits="userSpaceOnUse"><stop offset="0" stop-color="#35bed6"/><stop offset="1" stop-color="#25003a"/></linearGradient><path fill="url(#b)" d="m 687.65,481.59999 c 8.8,-31 19.2,-43.7 19.2,-43.7 0,0 -0.6,11.7 4.1,17.8 0.8,-12.7 11.3,-24.9 23.4,-27 -6.9,8 -7.9,15.6 -7,19.2 4.1,-7.1 21.2,-16.9 42.8,-8 -19.8,1.4 -30.3,11 -31.6,18.4 -1.1,6.5 1.8,9.6 1.8,9.6 13.8,-0.9 17.6,11.4 20.4,11.4 2.8,0 7.9,3.6 7.8,8.2 -0.2,8.1 -6.8,5.8 -6.8,10.4 0,4.1 2.6,6.9 3.4,6.2 1.7,-1.8 5.2,-2.6 7.5,-1.2 5.6,3.4 -0.8,8.2 5.2,12.8 6,4.6 12,11.5 12,17.7 0,4.9 -2.9,3.9 -3,4.5 0,0.2 -0.2,2 -1,4.2 9.2,3.8 18.1,8.3 26.6,13.2 10.5,-16.1 16.6,-35.3 16.6,-55.9 0,-56.6 -45.9,-102.5 -102.5,-102.5 -56.6,0 -102.5,45.9 -102.5,102.5 0,11.5 1.9,22.6 5.4,33 31.4,-6.1 46.7,-9.9 58.2,-50.8 z"/><linearGradient id="c" x1="782.132" x2="634.132" y1="419.159" y2="538.492" gradientTransform="translate(.35 -.8)" gradientUnits="userSpaceOnUse"><stop offset="0" stop-color="#35bed6"/><stop offset="1" stop-color="#25003a"/></linearGradient><path fill="url(#c)" d="m 687.65,481.59999 c 8.8,-31 19.2,-43.7 19.2,-43.7 0,0 -0.6,11.7 4.1,17.8 0.8,-12.7 11.3,-24.9 23.4,-27 -6.9,8 -7.9,15.6 -7,19.2 4.1,-7.1 21.2,-16.9 42.8,-8 -19.8,1.4 -30.3,11 -31.6,18.4 -1.1,6.5 1.8,9.6 1.8,9.6 13.8,-0.9 17.6,11.4 20.4,11.4 0.8,0 1.9,0.3 2.9,0.9 12.3,-2 24.9,-3.1 37.7,-3.1 8.6,0 17,0.5 25.3,1.4 -9.7,-46.6 -50.9,-81.5 -100.4,-81.5 -56.6,0 -102.5,45.9 -102.5,102.5 0,11.5 1.9,22.6 5.4,33 31.7,-6.2 47,-10 58.5,-50.9 z"/><linearGradient id="d" x1="729.493" x2="632.159" y1="402.755" y2="535.088" gradientTransform="translate(.35 -.8)" gradientUnits="userSpaceOnUse"><stop offset="0" stop-color="#35bed6"/><stop offset="1" stop-color="#25003a"/></linearGradient><path fill="url(#d)" d="m 630.05,532.19999 c 16.4,-32.3 40.2,-60.2 69.2,-81.5 4.4,-8.9 7.6,-12.8 7.6,-12.8 0,0 -0.2,3.2 0.3,7.2 3.8,-2.5 7.7,-5 11.6,-7.3 4.2,-4.7 9.7,-8.1 15.6,-9.1 -0.3,0.4 -0.7,0.8 -1,1.2 15,-7.4 30.9,-13.3 47.5,-17.3 -15.8,-9.9 -34.5,-15.7 -54.5,-15.7 -56.6,0 -102.5,45.9 -102.5,102.5 0,11.5 1.9,22.6 5.4,33 0.4,-0.1 0.6,-0.2 0.8,-0.2 z"/></g></svg>
