<?xml version="1.0" encoding="utf-8"?>
<!-- Generator: Adobe Illustrator 22.0.1, SVG Export Plug-In . SVG Version: 6.00 Build 0)  -->
<svg version="1.1" id="Livello_1" xmlns="http://www.w3.org/2000/svg" xmlns:xlink="http://www.w3.org/1999/xlink" x="0px" y="0px"
	 viewBox="0 0 16 16" style="enable-background:new 0 0 16 16;" xml:space="preserve">
<style type="text/css">
	.st0{fill:#415364;}
	.st1{fill:#FFFFFF;}
	.st2{fill:#FF9E18;}
</style>
<g>
	<path class="st0" d="M15,16H1c-0.5,0-1-0.4-1-1V1c0-0.5,0.4-1,1-1h14c0.5,0,1,0.4,1,1v14C16,15.6,15.6,16,15,16z"/>
	<g>
		<g>
			<path class="st1" d="M12,5.7l0,4.6c0,0,0,0.1-0.1,0.1L8,12.6c0,0-0.1,0-0.1,0l-4-2.3c0,0-0.1-0.1-0.1-0.1l0-4c0,0,0-0.1-0.1-0.1
				L2.8,5.5c-0.1,0-0.2,0-0.2,0.1v5.1c0,0.2,0.1,0.5,0.3,0.6L7.6,14c0.2,0.1,0.5,0.1,0.7,0l4.7-2.7c0.2-0.1,0.3-0.3,0.3-0.6V5.3
				c0-0.2-0.1-0.5-0.3-0.6L8.3,2C8.1,1.9,7.9,1.9,7.6,2L5.5,3.2c-0.1,0-0.1,0.1,0,0.2L6.6,4c0,0,0.1,0,0.1,0l1.3-0.7
				c0,0,0.1,0,0.1,0L12,5.7C12,5.6,12,5.7,12,5.7z"/>
			<circle class="st2" cx="10.2" cy="8" r="0.7"/>
			<circle class="st2" cx="7.8" cy="8" r="0.7"/>
		</g>
	</g>
</g>
</svg>
