<?xml version="1.0" encoding="utf-8"?>
<!-- Generator: Adobe Illustrator 22.0.1, SVG Export Plug-In . SVG Version: 6.00 Build 0)  -->
<svg version="1.1" id="Livello_1" xmlns="http://www.w3.org/2000/svg" xmlns:xlink="http://www.w3.org/1999/xlink" x="0px" y="0px"
	 viewBox="0 0 32 32" style="enable-background:new 0 0 32 32;" xml:space="preserve">
<style type="text/css">
	.st0{fill:#415364;}
	.st1{fill:#FF9E18;}
	.st2{fill:#FFFFFF;}
</style>
<g>
	<g>
		<rect class="st0" width="32" height="32"/>
	</g>
	<g>
		<path class="st1" d="M23.6,11.7l0,8.5c0,0.1,0,0.1-0.1,0.2l-7.3,4.2c-0.1,0-0.1,0-0.2,0l-7.4-4.3c-0.1,0-0.1-0.1-0.1-0.2l0-7.5
			c0-0.1,0-0.1-0.1-0.2l-2-1.2c-0.1-0.1-0.3,0-0.3,0.2v9.5c0,0.4,0.2,0.8,0.6,1.1l8.8,5.1c0.4,0.2,0.9,0.2,1.2,0l8.7-5
			c0.4-0.2,0.6-0.6,0.6-1.1V10.9c0-0.4-0.2-0.8-0.6-1.1l-8.7-5c-0.4-0.2-0.9-0.2-1.2,0l-4,2.3c-0.1,0.1-0.1,0.3,0,0.4l2,1.2
			c0.1,0,0.1,0,0.2,0l2.3-1.3c0.1,0,0.1,0,0.2,0l7.3,4.2C23.5,11.6,23.6,11.7,23.6,11.7z"/>
		<circle class="st2" cx="20.1" cy="16" r="1.4"/>
		<circle class="st2" cx="15.7" cy="16" r="1.4"/>
	</g>
</g>
</svg>
