<?xml version="1.0" encoding="utf-8"?>
<!-- Generator: Adobe Illustrator 22.0.1, SVG Export Plug-In . SVG Version: 6.00 Build 0)  -->
<svg version="1.1" id="Livello_1" xmlns="http://www.w3.org/2000/svg" xmlns:xlink="http://www.w3.org/1999/xlink" x="0px" y="0px"
	 viewBox="0 0 32 32" style="enable-background:new 0 0 32 32;" xml:space="preserve">
<style type="text/css">
	.st0{fill:#415364;}
	.st1{fill:#FFFFFF;}
	.st2{fill:#FF9E18;}
</style>
<g>
	<path class="st0" d="M30,32H2c-1.1,0-2-0.9-2-2V2c0-1.1,0.9-2,2-2h28c1.1,0,2,0.9,2,2v28C32,31.1,31.1,32,30,32z"/>
	<circle class="st1" cx="20.4" cy="16" r="1.5"/>
	<circle class="st1" cx="15.6" cy="16" r="1.5"/>
	<g>
		<path class="st1" d="M8,13L8,13c2.7,0,4.8-2.2,4.8-4.8v0c0-2.7-2.2-4.8-4.8-4.8h0c-2.7,0-4.8,2.2-4.8,4.8v0C3.2,10.8,5.4,13,8,13z
			"/>
		<g>
			<path class="st2" d="M7.4,8.9h1.3c0.2,0,0.4-0.2,0.4-0.4V5c0-0.2-0.2-0.4-0.4-0.4H7.4C7.2,4.6,7,4.7,7,5v3.6
				C7,8.7,7.2,8.9,7.4,8.9z"/>
			<path class="st2" d="M7.4,11.8h1.3c0.2,0,0.4-0.2,0.4-0.4v-1.2c0-0.2-0.2-0.4-0.4-0.4H7.4C7.2,9.9,7,10,7,10.2v1.2
				C7,11.6,7.2,11.8,7.4,11.8z"/>
		</g>
	</g>
	<path class="st2" d="M26,9.4L16.6,4c-0.4-0.2-0.9-0.2-1.3,0l-2,1.1c0.4,0.8,0.7,1.6,0.8,2.5l1.7-1c0.1,0,0.2,0,0.2,0l7.9,4.5
		c0.1,0,0.1,0.1,0.1,0.2l0,9.2c0,0.1,0,0.2-0.1,0.2l-7.9,4.5c-0.1,0-0.2,0-0.2,0l-7.9-4.6c-0.1,0-0.1-0.1-0.1-0.2l0-6.2
		c-0.9,0-1.8-0.3-2.6-0.7v7.8c0,0.5,0.3,0.9,0.7,1.1l9.4,5.4c0.4,0.2,0.9,0.2,1.3,0l9.4-5.4c0.4-0.2,0.7-0.7,0.7-1.1V10.5
		C26.7,10,26.4,9.6,26,9.4z"/>
</g>
</svg>
