<?xml version="1.0" encoding="utf-8"?>
<svg version="1.1" id="Livello_1" xmlns="http://www.w3.org/2000/svg" xmlns:xlink="http://www.w3.org/1999/xlink" x="0px" y="0px"
	 viewBox="0 0 32 32" style="enable-background:new 0 0 32 32;" xml:space="preserve">
<style type="text/css">
	.st0{fill:#FFFFFF;}
	.st1{fill:#FF9E18;}
	.st2{fill:#415364;}
</style>
<g>
	<path class="st0" d="M26,32H6c-3.3,0-6-2.7-6-6V6c0-3.3,2.7-6,6-6h20c3.3,0,6,2.7,6,6v20C32,29.3,29.3,32,26,32z"/>
	<path class="st1" d="M24.1,11.4l0,9.2c0,0.1,0,0.2-0.1,0.2l-7.9,4.5c-0.1,0-0.2,0-0.2,0L8,20.7c-0.1,0-0.1-0.1-0.1-0.2l0-8
		c0-0.1,0-0.2-0.1-0.2l-2.2-1.3c-0.1-0.1-0.3,0-0.3,0.2v10.2c0,0.5,0.3,0.9,0.7,1.1l9.4,5.4c0.4,0.2,0.9,0.2,1.3,0l9.4-5.4
		c0.4-0.2,0.7-0.7,0.7-1.1V10.5c0-0.5-0.3-0.9-0.7-1.1L16.7,4c-0.4-0.2-0.9-0.2-1.3,0L11,6.5c-0.1,0.1-0.1,0.3,0,0.4l2.2,1.3
		c0.1,0,0.2,0,0.2,0l2.5-1.4c0.1,0,0.2,0,0.2,0l7.9,4.5C24.1,11.3,24.1,11.3,24.1,11.4z"/>
	<circle class="st2" cx="20.4" cy="16" r="1.5"/>
	<circle class="st2" cx="15.7" cy="16" r="1.5"/>
</g>
</svg>
