<?xml version="1.0" encoding="utf-8"?>
<!-- Generator: Adobe Illustrator 22.0.1, SVG Export Plug-In . SVG Version: 6.00 Build 0)  -->
<svg version="1.1" id="Livello_1" xmlns="http://www.w3.org/2000/svg" xmlns:xlink="http://www.w3.org/1999/xlink" x="0px" y="0px"
	 viewBox="0 0 32 32" style="enable-background:new 0 0 32 32;" xml:space="preserve">
<style type="text/css">
	.st0{fill:#415364;}
	.st1{fill:#FFFFFF;}
	.st2{fill:#FF9E18;}
</style>
<g>
	<path class="st0" d="M30,32H2c-1.1,0-2-0.9-2-2V2c0-1.1,0.9-2,2-2h28c1.1,0,2,0.9,2,2v28C32,31.1,31.1,32,30,32z"/>
	<g>
		<g>
			<path class="st1" d="M24,11.4l0,9.2c0,0.1,0,0.2-0.1,0.2l-7.9,4.5c-0.1,0-0.2,0-0.2,0l-7.9-4.6c-0.1,0-0.1-0.1-0.1-0.2l0-8
				c0-0.1,0-0.2-0.1-0.2L5.5,11c-0.1-0.1-0.3,0-0.3,0.2v10.2c0,0.5,0.3,0.9,0.7,1.1l9.4,5.4c0.4,0.2,0.9,0.2,1.3,0l9.4-5.4
				c0.4-0.2,0.7-0.7,0.7-1.1V10.5c0-0.5-0.3-0.9-0.7-1.1L16.6,4c-0.4-0.2-0.9-0.2-1.3,0L11,6.5c-0.1,0.1-0.1,0.3,0,0.4l2.2,1.3
				c0.1,0,0.2,0,0.2,0l2.5-1.4c0.1,0,0.2,0,0.2,0l7.9,4.5C24,11.2,24,11.3,24,11.4z"/>
			<circle class="st2" cx="20.4" cy="16" r="1.5"/>
			<circle class="st2" cx="15.6" cy="16" r="1.5"/>
		</g>
	</g>
</g>
</svg>
